<svg width="24" height="24" viewBox="0 0 24 24" fill="none" xmlns="http://www.w3.org/2000/svg">
<path d="M15.3151 7.34175C15.4913 7.69415 15.7353 8.00839 16.0329 8.26653C16.3306 8.52466 16.6762 8.72164 17.05 8.84621C17.4238 8.97078 17.8185 9.0205 18.2115 8.99254C18.6045 8.96458 18.9882 8.85948 19.3406 8.68325C19.693 8.50701 20.0072 8.2631 20.2654 7.96542C20.5235 7.66774 20.7205 7.32213 20.8451 6.94833C20.9696 6.57453 21.0194 6.17985 20.9914 5.78683C20.9634 5.39381 20.8583 5.01015 20.6821 4.65775C20.3262 3.94604 19.7021 3.40487 18.9472 3.15329C18.1923 2.90171 17.3683 2.96033 16.6566 3.31625C15.9449 3.67217 15.4037 4.29624 15.1521 5.05116C14.9006 5.80609 14.9592 6.63004 15.3151 7.34175ZM15.3151 16.6577C14.9592 17.3696 14.9006 18.1937 15.1523 18.9487C15.404 19.7037 15.9453 20.3278 16.6571 20.6837C17.3689 21.0397 18.193 21.0982 18.948 20.8466C19.7031 20.5949 20.3272 20.0536 20.6831 19.3417C21.039 18.6299 21.0976 17.8058 20.8459 17.0508C20.5942 16.2958 20.0529 15.6717 19.3411 15.3157C18.9886 15.1395 18.6049 15.0344 18.2118 15.0065C17.8187 14.9786 17.424 15.0283 17.0502 15.1529C16.2951 15.4046 15.671 15.9459 15.3151 16.6577Z" fill="#C4320A"/>
<path d="M8.6831 13.3417C8.8851 12.9377 8.9991 12.4817 8.9991 11.9997C8.9991 11.5177 8.8851 11.0617 8.6831 10.6577M8.6831 13.3417C8.38081 13.9461 7.88331 14.4308 7.2712 14.7171C6.65909 15.0035 5.96823 15.0748 5.31055 14.9194C4.65286 14.7641 4.06687 14.3913 3.64752 13.8614C3.22816 13.3315 3 12.6755 3 11.9997C3 11.324 3.22816 10.668 3.64752 10.1381C4.06687 9.60816 4.65286 9.23535 5.31055 9.08005C5.96823 8.92474 6.65909 8.99604 7.2712 9.28239C7.88331 9.56873 8.38081 10.0534 8.6831 10.6577M8.6831 13.3417L15.3151 16.6577M8.6831 10.6577L15.3151 7.34175M15.3151 16.6577C14.9592 17.3696 14.9006 18.1937 15.1523 18.9487C15.404 19.7037 15.9453 20.3278 16.6571 20.6837C17.3689 21.0397 18.193 21.0982 18.948 20.8466C19.7031 20.5949 20.3272 20.0536 20.6831 19.3417C21.039 18.6299 21.0976 17.8058 20.8459 17.0508C20.5942 16.2958 20.0529 15.6717 19.3411 15.3157C18.9886 15.1395 18.6049 15.0344 18.2118 15.0065C17.8187 14.9786 17.424 15.0283 17.0502 15.1529C16.2951 15.4046 15.671 15.9459 15.3151 16.6577ZM15.3151 7.34175C15.4913 7.69415 15.7353 8.00839 16.0329 8.26653C16.3306 8.52466 16.6762 8.72164 17.05 8.84621C17.4238 8.97078 17.8185 9.0205 18.2115 8.99254C18.6045 8.96458 18.9882 8.85948 19.3406 8.68325C19.693 8.50701 20.0072 8.2631 20.2654 7.96542C20.5235 7.66774 20.7205 7.32213 20.8451 6.94833C20.9696 6.57453 21.0194 6.17985 20.9914 5.78683C20.9634 5.39381 20.8583 5.01015 20.6821 4.65775C20.3262 3.94604 19.7021 3.40487 18.9472 3.15329C18.1923 2.90171 17.3683 2.96033 16.6566 3.31625C15.9449 3.67217 15.4037 4.29624 15.1521 5.05116C14.9006 5.80609 14.9592 6.63004 15.3151 7.34175Z" stroke="#C4320A" stroke-width="2" stroke-linecap="round" stroke-linejoin="round"/>
<circle cx="6" cy="12" r="3" fill="#C4320A"/>
</svg>
