<svg width="361" height="361" viewBox="0 0 361 361" fill="none" xmlns="http://www.w3.org/2000/svg">
<g clip-path="url(#clip0_13_10)">
<path d="M314.638 0H46.3623C20.7571 0 0 20.7571 0 46.3623V314.638C0 340.243 20.7571 361 46.3623 361H314.638C340.243 361 361 340.243 361 314.638V46.3623C361 20.7571 340.243 0 314.638 0Z" fill="#C4320A"/>
<path d="M168.279 156.124C168.279 162.892 164.242 167.418 158.113 167.418H57.7897C51.6604 167.418 47.6238 162.906 47.6238 156.124V63.8595C47.6238 57.0922 51.6604 52.5658 57.7897 52.5658H158.113C164.242 52.5658 168.279 57.0773 168.279 63.8595V156.124ZM113.754 126.769C116.173 116.93 116.336 103.707 113.754 93.2144H102.134C104.226 103.38 104.063 116.603 102.134 126.769H113.754Z" fill="white"/>
<path d="M313.436 133.551C309.236 150.974 297.957 164.85 280.534 167.418C262.473 170.163 243.758 170 225.861 167.418C208.274 164.836 196.832 150.96 192.796 133.551C189.085 117.583 189.412 100.976 192.796 86.4471C196.832 69.0241 208.274 55.3113 225.861 52.5806C243.922 49.8351 262.636 49.8351 280.534 52.5806C297.957 55.3261 311.506 69.0389 313.436 86.4471C316.819 101.451 316.982 119.022 313.436 133.551ZM258.911 126.784C261.33 116.945 261.493 103.722 258.911 93.2293H247.291C249.383 103.395 249.22 116.618 247.291 126.784H258.911Z" fill="white"/>
<path d="M168.279 274.612C164.079 292.035 152.8 305.911 135.377 308.479C117.316 311.224 98.6016 311.061 80.7037 308.479C63.1175 305.896 51.6753 292.02 47.6387 274.612C43.9285 258.644 44.255 242.037 47.6387 227.508C51.6753 210.085 63.1175 196.372 80.7037 193.641C98.7649 190.896 117.479 190.896 135.377 193.641C152.8 196.387 166.349 210.1 168.279 227.508C171.662 242.512 171.826 260.083 168.279 274.612ZM113.754 267.845C116.173 258.006 116.336 244.782 113.754 234.29H102.134C104.226 244.456 104.063 257.679 102.134 267.845H113.754Z" fill="white"/>
<path d="M313.436 297.2C313.436 303.982 309.399 308.494 303.27 308.494H202.947C196.817 308.494 192.781 303.982 192.781 297.2V204.935C192.781 198.168 196.817 193.641 202.947 193.641H303.27C309.399 193.641 313.436 198.153 313.436 204.935V297.2ZM258.911 267.845C261.33 258.006 261.493 244.782 258.911 234.29H247.291C249.383 244.456 249.22 257.679 247.291 267.845H258.911Z" fill="white"/>
</g>
<defs>
<clipPath id="clip0_13_10">
<rect width="361" height="361" fill="white"/>
</clipPath>
</defs>
</svg>
