<svg width="192" height="136" viewBox="0 0 192 136" fill="none" xmlns="http://www.w3.org/2000/svg">
<g opacity="0.2">
<path d="M139.309 94.5872C134.574 114.376 121.817 130.137 102.138 133.07C81.7286 136.189 60.5904 136.004 40.366 133.07C20.5016 130.137 7.56027 114.376 3.00955 94.5872C-1.18116 76.4501 -0.821169 57.5705 3.00955 41.0763C7.5695 21.2871 20.5016 5.71185 40.366 2.5931C60.775 -0.525661 81.9132 -0.525661 102.138 2.5931C121.817 5.71185 137.122 21.2871 139.309 41.0763C143.14 58.1181 143.316 78.093 139.309 94.5872ZM77.7132 86.8924C80.4455 75.7168 80.6301 60.6892 77.7132 48.7804H64.5965C66.9688 60.3272 66.7841 75.3548 64.5965 86.8924H77.7132Z" fill="#FDDCAB"/>
<path d="M303.311 120.243C303.311 127.937 298.751 133.07 291.828 133.07H178.484C171.561 133.07 167.001 127.937 167.001 120.243V15.4302C167.001 7.73538 171.561 2.60242 178.484 2.60242H291.828C298.751 2.60242 303.311 7.73538 303.311 15.4302V120.243ZM241.714 86.8924C244.447 75.7169 244.631 60.6893 241.714 48.7804H228.598C230.97 60.3273 230.785 75.3549 228.598 86.8924H241.714Z" fill="white"/>
</g>
</svg>
