<svg width="191" height="136" viewBox="0 0 191 136" fill="none" xmlns="http://www.w3.org/2000/svg">
<g opacity="0.2">
<path d="M136.309 119.989C136.309 127.683 131.749 132.816 124.826 132.816H11.4829C4.55994 132.816 0 127.683 0 119.989V15.1761C0 7.47206 4.55071 2.34839 11.4829 2.34839H124.826C131.749 2.34839 136.309 7.48134 136.309 15.1761V119.989ZM74.7129 86.6384C77.4452 75.4628 77.6298 60.4353 74.7129 48.5264H61.5962C63.9684 60.0733 63.7838 75.1008 61.5962 86.6384H74.7129Z" fill="white"/>
<path d="M300.31 94.3331C295.575 114.122 282.818 129.883 263.138 132.816C242.729 135.935 221.591 135.749 201.367 132.816C181.502 129.883 168.561 114.122 164.01 94.3331C159.819 76.1961 160.179 57.3165 164.01 40.8223C168.57 21.0331 181.502 5.45783 201.367 2.33907C221.775 -0.779689 242.914 -0.779689 263.138 2.33907C282.818 5.45783 298.122 21.0331 300.31 40.8223C304.141 57.8641 304.316 77.839 300.31 94.3331ZM238.714 86.6384C241.446 75.4628 241.631 60.4352 238.714 48.5264H225.597C227.969 60.0732 227.785 75.1008 225.597 86.6384H238.714Z" fill="#FDDCAB"/>
</g>
</svg>
