<svg width="24" height="24" viewBox="0 0 24 24" fill="none" xmlns="http://www.w3.org/2000/svg">
<path fill-rule="evenodd" clip-rule="evenodd" d="M10.8 3.025C11.1462 2.76536 11.5673 2.625 12 2.625C12.4327 2.625 12.8538 2.76536 13.2 3.025L20.2 8.275C20.4484 8.46129 20.65 8.70286 20.7889 8.98057C20.9277 9.25828 21 9.56451 21 9.875V19.375C21 19.9054 20.7893 20.4141 20.4142 20.7892C20.0391 21.1643 19.5304 21.375 19 21.375H14.1C13.8083 21.375 13.5285 21.2591 13.3222 21.0528C13.1159 20.8465 13 20.5667 13 20.275V14.375C13 14.1098 12.8946 13.8554 12.7071 13.6679C12.5196 13.4804 12.2652 13.375 12 13.375C11.7348 13.375 11.4804 13.4804 11.2929 13.6679C11.1054 13.8554 11 14.1098 11 14.375V20.275C11 20.4195 10.9715 20.5625 10.9163 20.696C10.861 20.8294 10.78 20.9507 10.6778 21.0528C10.5757 21.155 10.4544 21.236 10.321 21.2913C10.1875 21.3465 10.0445 21.375 9.9 21.375H5C4.46957 21.375 3.96086 21.1643 3.58579 20.7892C3.21071 20.4141 3 19.9054 3 19.375V9.875C3 9.56451 3.07229 9.25828 3.21115 8.98057C3.35 8.70286 3.55161 8.46129 3.8 8.275L10.8 3.025ZM12 4.625L5 9.875V19.375H9V14.375C9 13.5794 9.31607 12.8163 9.87868 12.2537C10.4413 11.6911 11.2044 11.375 12 11.375C12.7956 11.375 13.5587 11.6911 14.1213 12.2537C14.6839 12.8163 15 13.5794 15 14.375V19.375H19V9.875L12 4.625Z" fill="#B7B7B7"/>
</svg>
