<svg width="38" height="37" viewBox="0 0 38 37" fill="none" xmlns="http://www.w3.org/2000/svg">
<g clip-path="url(#clip0_1182_834)">
<path d="M17.286 15.0316C17.286 15.9956 16.7202 16.6387 15.8612 16.6387H1.79805C0.939071 16.6387 0.373291 15.9956 0.373291 15.0316V1.9001C0.373291 0.93489 0.937925 0.292969 1.79805 0.292969H15.8612C16.7202 0.292969 17.286 0.936053 17.286 1.9001V15.0316ZM9.64337 10.8533C9.98238 9.45313 10.0053 7.5704 9.64337 6.0784H8.0159C8.31024 7.52505 8.28733 9.40778 8.0159 10.8533H9.64337Z" fill="white"/>
<path d="M37.6346 11.8173C37.047 14.2966 35.4642 16.2712 33.0224 16.6387C30.4902 17.0295 27.8674 17.0062 25.3581 16.6387C22.8934 16.2712 21.2877 14.2966 20.723 11.8173C20.2031 9.54503 20.2477 7.17969 20.723 5.11321C21.2888 2.63391 22.8934 0.682565 25.3581 0.29183C27.8903 -0.0989043 30.5131 -0.0989043 33.0224 0.29183C35.4642 0.682565 37.3631 2.63391 37.6346 5.11321C38.1099 7.2483 38.1316 9.75086 37.6346 11.8173ZM29.992 10.8533C30.331 9.45316 30.3539 7.57042 29.992 6.07842H28.3645C28.6588 7.52507 28.6359 9.40781 28.3645 10.8533H29.992Z" fill="#FDDCAB"/>
<path d="M17.2862 31.895C16.6986 34.3743 15.1158 36.3489 12.674 36.7164C10.1418 37.1071 7.51903 37.0838 5.00967 36.7164C2.54498 36.3489 0.939268 34.3743 0.374634 31.895C-0.145333 29.6227 -0.100667 27.2573 0.374634 25.1909C0.940414 22.7115 2.54498 20.7602 5.00967 20.3695C7.54194 19.9787 10.1647 19.9787 12.674 20.3695C15.1158 20.7602 17.0147 22.7115 17.2862 25.1909C17.7615 27.3259 17.7832 29.8285 17.2862 31.895ZM9.64357 30.9309C9.98258 29.5308 10.0055 27.6481 9.64357 26.1561H8.01609C8.31044 27.6027 8.28753 29.4854 8.01609 30.9309H9.64357Z" fill="#FDDCAB"/>
<path d="M37.6349 35.1092C37.6349 36.0732 37.0691 36.7163 36.2101 36.7163H22.1469C21.2879 36.7163 20.7222 36.0732 20.7222 35.1092V21.9777C20.7222 21.0137 21.2879 20.3706 22.1469 20.3706H36.2101C37.0691 20.3706 37.6349 21.0137 37.6349 21.9777V35.1092ZM29.9922 30.9309C30.3313 29.5308 30.3542 27.648 29.9922 26.156H28.3648C28.6591 27.6027 28.6362 29.4854 28.3648 30.9309H29.9922Z" fill="white"/>
</g>
<defs>
<clipPath id="clip0_1182_834">
<rect width="38" height="37" fill="white"/>
</clipPath>
</defs>
</svg>
