<svg width="332" height="319" viewBox="0 0 332 319" fill="none" xmlns="http://www.w3.org/2000/svg">
<g clip-path="url(#clip0_13_3)">
<path d="M150.93 129.26C150.93 137.55 145.99 143.08 138.49 143.08H15.7C8.20001 143.08 3.26001 137.55 3.26001 129.26V16.34C3.26001 8.04 8.19001 2.52 15.7 2.52H138.49C145.99 2.52 150.93 8.05 150.93 16.34V129.26ZM84.2 93.33C87.16 81.29 87.36 65.1 84.2 52.27H69.99C72.56 64.71 72.36 80.9 69.99 93.33H84.2Z" fill="#221E1F"/>
<path d="M328.6 101.62C323.47 122.94 309.65 139.92 288.33 143.08C266.22 146.44 243.32 146.24 221.41 143.08C199.89 139.92 185.87 122.94 180.94 101.62C176.4 82.08 176.79 61.74 180.94 43.97C185.88 22.65 199.89 5.87001 221.41 2.51001C243.52 -0.849994 266.42 -0.849994 288.33 2.51001C309.65 5.87001 326.23 22.65 328.6 43.97C332.75 62.33 332.94 83.85 328.6 101.62ZM261.87 93.33C264.83 81.29 265.03 65.1 261.87 52.27H247.66C250.23 64.71 250.03 80.9 247.66 93.33H261.87Z" fill="#221E1F"/>
<path d="M150.93 274.27C145.8 295.59 131.98 312.57 110.66 315.73C88.55 319.09 65.65 318.89 43.74 315.73C22.22 312.57 8.20003 295.59 3.27003 274.27C-1.26997 254.73 -0.879967 234.39 3.27003 216.62C8.21003 195.3 22.22 178.52 43.74 175.16C65.85 171.8 88.75 171.8 110.66 175.16C131.98 178.52 148.56 195.3 150.93 216.62C155.08 234.98 155.27 256.5 150.93 274.27ZM84.2 265.98C87.16 253.94 87.36 237.75 84.2 224.92H69.99C72.56 237.36 72.36 253.55 69.99 265.98H84.2Z" fill="#221E1F"/>
<path d="M328.6 301.91C328.6 310.2 323.66 315.73 316.16 315.73H193.37C185.87 315.73 180.93 310.2 180.93 301.91V188.99C180.93 180.7 185.87 175.17 193.37 175.17H316.16C323.66 175.17 328.6 180.7 328.6 188.99V301.91ZM261.87 265.98C264.83 253.94 265.03 237.75 261.87 224.92H247.66C250.23 237.36 250.03 253.55 247.66 265.98H261.87Z" fill="#221E1F"/>
</g>
<defs>
<clipPath id="clip0_13_3">
<rect width="331.79" height="318.17" fill="white"/>
</clipPath>
</defs>
</svg>
